<svg viewBox="0 0 120 54" xmlns="http://www.w3.org/2000/svg">
    <path fill="#fff" d="m2.74022 1.22815h1.89165v5.83603l5.6369-5.83603h2.51584l-6.20446 6.27327 6.69631 6.99559h-2.76183l-5.88276-6.5013v6.5013h-1.89165zm12.7118 13.26886h1.89152v-10.91163h.03779l5.97744 10.91163h2.42129v-13.26886h-1.89152v10.68361h-.03792l-5.82601-10.68361h-2.57259zm19.55916-13.49697c-4.01007 0-6.35577 2.92747-6.35577 6.86258 0 4.02999 2.32674 6.86245 6.35577 6.86245s6.35564-2.83246 6.35564-6.86245c0-3.93511-2.34544-6.86258-6.35564-6.86258m0 12.05226c-3.04548 0-4.3506-2.5474-4.3506-5.18968 0-2.69946 1.4376-5.20874 4.3506-5.18968 2.91313-.01906 4.35073 2.49023 4.35073 5.18968 0 2.64228-1.30526 5.18968-4.35073 5.18968m11.59594 1.44471h2.5348l2.89404-11.59609h.03792l2.87521 11.59609h2.44012l4.06695-13.26886h-2.00516l-3.15886 11.36794h-.0378l-2.85637-11.36794h-2.68611l-2.81832 11.36794h-.03792l-3.15899-11.36794h-2.08075zm16.76009 0h7.41517v-1.6729h-5.52365v-11.59596h-1.89153v13.26886zm9.77994 0h7.39608v-1.6729h-5.50456v-4.37223h5.01284v-1.6729h-5.01284v-3.87807h5.50456v-1.67277h-7.39608v13.26886zm10.51778.00002h3.89656c4.35074 0 7.03671-2.30019 7.03671-6.7485 0-4.08716-3.12106-6.52036-7.03671-6.52036h-3.89656zm1.89153-11.59608h2.21309c2.7239 0 4.82362 1.82496 4.82362 4.92355 0 3.42189-1.79697 4.99964-5.05064 4.99964h-1.98607zm22.26404-1.23555c-1.09706-.38021-1.94828-.6654-3.87772-.6654-4.02916 0-6.98008 2.71851-6.98008 6.80554 0 4.22017 2.78078 6.91962 6.96112 6.91962 2.06193 0 3.3103-.34223 4.02916-.5893v-6.90057h-4.67231v1.55883h2.78065v4.02999c-.47288.09515-.81342.22815-2.11855.22815-2.74286 0-4.97492-2.07204-4.97492-5.18968 0-2.96559 2.02399-5.18968 5.06947-5.18968 1.70255 0 2.70493.30412 3.63187.91248l.1513-1.91998zm3.78342 12.83161h7.39608v-1.6729h-5.50455v-4.37223h5.01284v-1.6729h-5.01284v-3.87807h5.50455v-1.67277h-7.39608v13.26886zm-100.65421 6.21082c-.94576-.41832-1.94828-.57038-2.96976-.57038-4.02916 0-6.97996 2.71851-6.97996 6.80555 0 4.22016 2.78053 6.91962 6.96099 6.91962.77562 0 2.00503-.05717 3.00768-.47536l-.11351-1.84388c-.66211.39927-1.92945.64634-2.87521.64634-2.74286 0-4.97492-2.07217-4.97492-5.18968 0-2.98451 2.024-5.18968 5.06947-5.18968.96472 0 1.89152.24708 2.7239.74136l.15131-1.84389zm2.3837 12.92655h1.89152v-5.89294h1.13499c1.00252 0 1.62683 0 2.2131 1.29256l2.02399 4.60038h2.15647l-2.49688-5.2847c-.41612-.81733-.6999-1.10252-1.2863-1.33067v-.03798c1.53215-.26613 2.7239-1.40676 2.7239-3.02263 0-3.17456-2.51584-3.59275-5.12623-3.59275h-3.23457v13.26873zm1.89152-11.59596h1.81594c1.74021 0 2.64831.76042 2.64831 1.95809 0 1.27363-1.0594 2.07204-2.85638 2.07204h-1.60787zm10.08242 11.59604h7.39608v-1.6729h-5.50443v-4.37223h5.01272v-1.6729h-5.01272v-3.87807h5.50443v-1.67277h-7.39608v13.26886zm9.17463-.00008h1.9862l1.34305-3.3458h6.46915l1.34305 3.3458h2.06179l-5.58028-13.26873h-1.98607l-5.6369 13.26873zm9.19306-4.90449h-5.25857l2.62935-6.57739zm7.3586 4.90449h1.89153v-11.59596h4.10487v-1.67277h-10.10115v1.67277h4.10475zm8.19096.00008h7.39608v-1.6729h-5.50456v-4.37223h5.01284v-1.6729h-5.01284v-3.87807h5.50456v-1.67277h-7.39608v13.26886zm16.89232-13.02171c-.90797-.32317-1.94828-.47536-2.81845-.47536-2.38349 0-4.2371 1.2547-4.2371 3.61193 0 4.12515 5.6747 3.30782 5.6747 6.27328 0 1.55882-1.51319 2.16719-2.59143 2.16719-.96485 0-2.09971-.38021-2.74286-.64634l-.1891 1.76792c.87004.28506 1.77801.55119 2.70493.55119 2.64831 0 4.82362-1.1217 4.82362-3.95403 0-4.37223-5.67483-3.78292-5.67483-6.33031 0-1.38771 1.24851-1.76792 2.30778-1.76792.98356 0 1.51319.17111 2.47791.55132l.26482-1.74886zm-61.93257 18.89021h-1.9862l-4.18034 11.59609h-.03779l-4.06695-11.59609h-2.11855l4.97479 13.26886h2.36453zm-.15108 13.26889h1.9862l1.34305-3.3458h6.46915l1.34305 3.3458h2.06192l-5.58028-13.26886h-1.9862l-5.6369 13.26886zm9.19318-4.90449h-5.2587l2.62935-6.57752zm6.11006 4.90444h7.41504v-1.67277h-5.52352v-11.59609h-1.89152zm19.95647-13.26881h-1.89152v7.52785c0 2.54727-.79459 4.29613-3.23471 4.29613s-3.23458-1.74886-3.23458-4.29613v-7.52785h-1.89152v7.77493c0 3.72601 1.87256 5.72208 5.1261 5.72208s5.12623-1.99607 5.12623-5.72208zm3.68868 13.26881h7.39608v-1.67277h-5.50456v-4.37235h5.01284v-1.6729h-5.01284v-3.87807h5.50456v-1.67277h-7.39608zm9.38263-.00003h2.11855v-2.12907h-2.11855z"/>
</svg>
